# xmcd
#
# Track frame offsets: 
#        150
#        11351
#        19920
#        31607
#        45508
#        58967
#        74153
#        90177
#        103954
#        117076
#
# Disc length: 1652 seconds
#
# Revision: 0
# Processed by: cddbd v1.5PL3 Copyright (c) Steve Scherf et al.
# Submitted via: ExactAudioCopy v0.95a5
#
DISCID=7b06720a
DTITLE=The Stanley Brothers - Bluegrass Is Timeless
DYEAR=2003
DGENRE=Bluegrass
TTITLE0=Are You Ready
TTITLE1=Are You Washed In The Blood
TTITLE2=Beautiful Life
TTITLE3=Farther Along
TTITLE4=Soldier's Grave
TTITLE5=Come All Ye Tender Hearted
TTITLE6=What A Friend We Have In Jesus
TTITLE7=Mother No Longer Awaits Me
TTITLE8=The Darkest Hour Is Just Before Dawn
TTITLE9=Where The Soul Never Dies
EXTD=
EXTT0=
EXTT1=
EXTT2=
EXTT3=
EXTT4=
EXTT5=
EXTT6=
EXTT7=
EXTT8=
EXTT9=
PLAYORDER=
